<svg width="18" height="32" viewBox="0 0 18 32" fill="none" xmlns="http://www.w3.org/2000/svg">
<path d="M17.2607 12.4394L8.63035 14.6821L0 12.4394V15.1389L8.62657 17.3811V17.3829L8.63035 17.3817L8.63414 17.3829V17.3811L17.2607 15.1389V12.4394Z" fill="#CB3940"/>
<path d="M8.87498 3.19055e-06C10.4183 3.19055e-06 11.6812 0.359785 12.6634 1.07935C13.6457 1.79891 14.3182 2.77695 14.6809 4.01346H11.9699C11.4756 2.77695 10.4459 2.1587 8.88067 2.1587C7.77147 2.1587 6.86781 2.52964 6.16968 3.27154C5.47155 4.01346 5.12186 4.95779 5.1206 6.10454C5.1206 7.26227 5.47029 8.21483 6.16968 8.96221C6.86907 9.70961 7.77924 10.0835 8.9002 10.0839C10.5638 10.0839 11.6368 9.42626 12.1193 8.11097H14.7231C14.3869 9.42626 13.7268 10.4435 12.7428 11.1626C11.7589 11.8818 10.478 12.2416 8.9002 12.242C7.04371 12.242 5.52157 11.6631 4.33378 10.5054C3.14601 9.34766 2.55231 7.88072 2.55273 6.10454C2.55273 4.34089 3.14643 2.88217 4.33378 1.72837C5.52115 0.574558 7.03489 -0.00156446 8.87498 3.19055e-06Z" fill="#1D3270"/>
<path d="M15.8031 32L10.4524 19.1878H9.73557H7.52393H6.80711L1.45703 32H4.38551L8.62976 21.8361L12.874 32H15.8031Z" fill="#CB3940"/>
</svg>
