<svg width="129" height="256" viewBox="0 0 129 256" fill="none" xmlns="http://www.w3.org/2000/svg">
<path d="M66.9263 226.41L96.6453 196.659C97.1385 196.083 97.3963 195.342 97.367 194.584C97.3378 193.827 97.0236 193.108 96.4874 192.571C95.9511 192.035 95.2323 191.721 94.4745 191.692C93.7166 191.662 92.9757 191.92 92.3997 192.414L65.1197 219.695L38.6226 193.196C38.0584 192.636 37.2952 192.321 36.4998 192.321C35.7043 192.321 34.9411 192.636 34.377 193.196C34.0948 193.476 33.8708 193.809 33.7179 194.176C33.565 194.543 33.4863 194.937 33.4863 195.334C33.4863 195.732 33.565 196.125 33.7179 196.492C33.8708 196.859 34.0948 197.192 34.377 197.472L63.3131 226.41C63.7928 226.888 64.4424 227.156 65.1197 227.156C65.7969 227.156 66.4466 226.888 66.9263 226.41Z" fill="white"/>
<path d="M66.9269 255.253L96.6458 225.503C97.1391 224.927 97.3969 224.186 97.3676 223.428C97.3383 222.67 97.0242 221.952 96.4879 221.415C95.9517 220.879 95.2328 220.565 94.475 220.536C93.7172 220.506 92.9763 220.764 92.4002 221.257L65.1202 248.539L38.6231 222.04C38.0589 221.479 37.2958 221.165 36.5003 221.165C35.7048 221.165 34.9417 221.479 34.3775 222.04V222.04C33.8167 222.604 33.502 223.368 33.502 224.163C33.502 224.959 33.8167 225.722 34.3775 226.286L63.3136 255.253C63.7933 255.732 64.443 256 65.1202 256C65.7975 256 66.4471 255.732 66.9269 255.253V255.253Z" fill="white"/>
<path d="M71.8216 45.3662C71.8216 41.1907 68.4369 37.8057 64.2614 37.8057C60.0859 37.8057 56.7012 41.1907 56.7012 45.3662V68.0479C56.7012 72.2236 60.0859 75.6084 64.2614 75.6084C68.4369 75.6084 71.8216 72.2236 71.8216 68.0479V45.3662Z" fill="white"/>
<path fill-rule="evenodd" clip-rule="evenodd" d="M0 52.9238C0 23.6948 23.6938 0 52.9215 0H75.6021C104.83 0 128.524 23.6948 128.524 52.9238V113.408C128.524 142.637 104.83 166.332 75.6021 166.332H52.9215C23.6938 166.332 0 142.637 0 113.408V52.9238ZM52.9215 15.1211H75.6021C96.4789 15.1211 113.403 32.046 113.403 52.9238V113.408C113.403 134.286 96.4789 151.211 75.6021 151.211H52.9215C32.0446 151.211 15.1204 134.286 15.1204 113.408V52.9238C15.1204 32.046 32.0446 15.1211 52.9215 15.1211Z" fill="white"/>
</svg>
