<svg width="33" height="30" viewBox="0 0 33 30" fill="none" xmlns="http://www.w3.org/2000/svg">
<path d="M8.85557 29.8939C6.99947 29.8128 5.99118 29.5159 5.32054 29.2644C4.43191 28.9319 3.79837 28.536 3.13144 27.8958C2.4645 27.2556 2.05173 26.6467 1.70759 25.7925C1.44601 25.1479 1.13713 24.1787 1.05272 22.3946C0.959958 20.466 0.941406 19.8874 0.941406 15.0013C0.941406 10.1153 0.961813 9.53755 1.05179 7.60722C1.1362 5.8231 1.44694 4.85571 1.70666 4.20929C2.05265 3.35513 2.46543 2.74616 3.13051 2.1042C3.79651 1.46402 4.43006 1.06637 5.31961 0.735578C5.99025 0.484144 6.99854 0.187238 8.85464 0.106102C10.8619 0.0178322 11.4649 0 16.5462 0C21.6293 0 22.2304 0.0196154 24.2386 0.106102C26.0947 0.187238 27.1012 0.485927 27.7737 0.735578C28.6623 1.06637 29.2958 1.46402 29.9628 2.1042C30.6297 2.74438 31.0406 3.35424 31.3866 4.2084C31.6482 4.85303 31.9571 5.82221 32.0415 7.60632C32.1333 9.53666 32.1519 10.1144 32.1519 15.0004C32.1519 19.8847 32.1333 20.4642 32.0415 22.3946C31.9571 24.1787 31.6463 25.1479 31.3866 25.7925C31.0406 26.6467 30.6288 27.2556 29.9628 27.8958C29.2968 28.536 28.6623 28.9319 27.7737 29.2644C27.103 29.5159 26.0947 29.8128 24.2386 29.8939C22.2323 29.9822 21.6293 30 16.5462 30C11.4649 30 10.8619 29.9831 8.85557 29.8939" fill="url(#paint0_radial)"/>
<path d="M8.85557 29.8939C6.99947 29.8128 5.99118 29.5159 5.32054 29.2644C4.43191 28.9319 3.79837 28.536 3.13144 27.8958C2.4645 27.2556 2.05173 26.6467 1.70759 25.7925C1.44601 25.1479 1.13713 24.1787 1.05272 22.3946C0.959958 20.466 0.941406 19.8874 0.941406 15.0013C0.941406 10.1153 0.961813 9.53755 1.05179 7.60722C1.1362 5.8231 1.44694 4.85571 1.70666 4.20929C2.05265 3.35513 2.46543 2.74616 3.13051 2.1042C3.79651 1.46402 4.43006 1.06637 5.31961 0.735578C5.99025 0.484144 6.99854 0.187238 8.85464 0.106102C10.8619 0.0178322 11.4649 0 16.5462 0C21.6293 0 22.2304 0.0196154 24.2386 0.106102C26.0947 0.187238 27.1012 0.485927 27.7737 0.735578C28.6623 1.06637 29.2958 1.46402 29.9628 2.1042C30.6297 2.74438 31.0406 3.35424 31.3866 4.2084C31.6482 4.85303 31.9571 5.82221 32.0415 7.60632C32.1333 9.53666 32.1519 10.1144 32.1519 15.0004C32.1519 19.8847 32.1333 20.4642 32.0415 22.3946C31.9571 24.1787 31.6463 25.1479 31.3866 25.7925C31.0406 26.6467 30.6288 27.2556 29.9628 27.8958C29.2968 28.536 28.6623 28.9319 27.7737 29.2644C27.103 29.5159 26.0947 29.8128 24.2386 29.8939C22.2323 29.9822 21.6293 30 16.5462 30C11.4649 30 10.8619 29.9831 8.85557 29.8939" fill="url(#paint1_radial)"/>
<path d="M12.7149 15.066C12.7149 13.0143 14.4447 11.3507 16.5792 11.3507C18.7137 11.3507 20.4444 13.0143 20.4444 15.066C20.4444 17.1177 18.7137 18.7814 16.5792 18.7814C14.4447 18.7814 12.7149 17.1177 12.7149 15.066V15.066ZM10.6254 15.066C10.6254 18.2268 13.2909 20.7889 16.5792 20.7889C19.8675 20.7889 22.533 18.2268 22.533 15.066C22.533 11.9053 19.8675 9.34313 16.5792 9.34313C13.2909 9.34313 10.6255 11.9051 10.6255 15.066H10.6254ZM21.3774 9.11622C21.3773 9.38073 21.4588 9.63934 21.6116 9.85933C21.7644 10.0793 21.9816 10.2508 22.2358 10.3522C22.49 10.4535 22.7698 10.4801 23.0397 10.4286C23.3096 10.3771 23.5576 10.2498 23.7522 10.0628C23.9469 9.87586 24.0795 9.63761 24.1333 9.37819C24.1871 9.11878 24.1597 8.84986 24.0545 8.60544C23.9492 8.36102 23.771 8.15207 23.5423 8.00503C23.3135 7.85798 23.0445 7.77944 22.7693 7.77934H22.7688C22.3999 7.7795 22.0462 7.92039 21.7853 8.17105C21.5244 8.42171 21.3777 8.76166 21.3774 9.11622V9.11622ZM11.8949 24.138C10.7644 24.0885 10.15 23.9075 9.74168 23.7546C9.20034 23.552 8.8141 23.3107 8.408 22.9209C8.0019 22.5311 7.75053 22.1602 7.54071 21.6399C7.38153 21.2475 7.19323 20.6568 7.14185 19.5702C7.08563 18.3954 7.07441 18.0425 7.07441 15.0662C7.07441 12.0899 7.08656 11.738 7.14185 10.5622C7.19333 9.47562 7.38302 8.886 7.54071 8.49254C7.75145 7.97219 8.00246 7.60093 8.408 7.21058C8.81354 6.82023 9.19941 6.57861 9.74168 6.37693C10.1498 6.22393 10.7644 6.04293 11.8949 5.99353C13.1171 5.9395 13.4842 5.92871 16.5792 5.92871C19.6742 5.92871 20.0417 5.94022 21.2649 5.99371C22.3953 6.0432 23.0087 6.22553 23.4181 6.3771C23.9594 6.57879 24.3457 6.82095 24.7518 7.21076C25.1579 7.60057 25.4083 7.97237 25.6191 8.49271C25.7782 8.88502 25.9665 9.4758 26.0179 10.5624C26.0741 11.7382 26.0854 12.0901 26.0854 15.0664C26.0854 18.0427 26.0741 18.3946 26.0179 19.5703C25.9664 20.6569 25.7772 21.2475 25.6191 21.64C25.4083 22.1604 25.1573 22.5316 24.7518 22.9211C24.3462 23.3105 23.9594 23.5522 23.4181 23.7547C23.01 23.9077 22.3953 24.0887 21.2649 24.1381C20.0427 24.1922 19.6756 24.203 16.5792 24.203C13.4828 24.203 13.1167 24.1922 11.8949 24.1381V24.138ZM11.7989 3.98839C10.5645 4.04242 9.72109 4.23055 8.98449 4.50606C8.22211 4.79057 7.57586 5.17227 6.93054 5.79158C6.28522 6.4109 5.88914 7.03217 5.59315 7.76587C5.30653 8.47435 5.1108 9.28464 5.05459 10.4711C4.99745 11.6594 4.98438 12.0394 4.98438 15.066C4.98438 18.0927 4.99745 18.4726 5.05459 19.6609C5.1108 20.8475 5.30653 21.6577 5.59315 22.3662C5.88914 23.099 6.28531 23.7214 6.93054 24.3404C7.57577 24.9595 8.22118 25.3407 8.98449 25.626C9.72248 25.9015 10.5645 26.0896 11.7989 26.1436C13.0358 26.1977 13.4304 26.2111 16.5792 26.2111C19.728 26.2111 20.1232 26.1986 21.3595 26.1436C22.5939 26.0896 23.4368 25.9015 24.1739 25.626C24.9363 25.3407 25.5825 24.9598 26.2278 24.3404C26.8732 23.7211 27.2684 23.099 27.5652 22.3662C27.8519 21.6577 28.0485 20.8474 28.1038 19.6609C28.16 18.4717 28.1731 18.0927 28.1731 15.066C28.1731 12.0394 28.16 11.6594 28.1038 10.4711C28.0476 9.28455 27.8519 8.4739 27.5652 7.76587C27.2684 7.03306 26.8721 6.41188 26.2278 5.79158C25.5835 5.17129 24.9363 4.79057 24.1748 4.50606C23.4368 4.23055 22.5938 4.04153 21.3604 3.98839C20.124 3.93409 19.7289 3.9209 16.5806 3.9209C13.4323 3.9209 13.0363 3.93347 11.7993 3.98839" fill="white"/>
<defs>
<radialGradient id="paint0_radial" cx="0" cy="0" r="1" gradientUnits="userSpaceOnUse" gradientTransform="translate(2.96132 29.3428) scale(39.6257 38.0889)">
<stop offset="0.09" stop-color="#FA8F21"/>
<stop offset="0.78" stop-color="#D82D7E"/>
</radialGradient>
<radialGradient id="paint1_radial" cx="0" cy="0" r="1" gradientUnits="userSpaceOnUse" gradientTransform="translate(22.5598 28.3795) scale(34.871 33.5186)">
<stop offset="0.64" stop-color="#8C3AAA" stop-opacity="0"/>
<stop offset="1" stop-color="#8C3AAA"/>
</radialGradient>
</defs>
</svg>
