<svg width="33" height="30" viewBox="0 0 33 30" fill="none" xmlns="http://www.w3.org/2000/svg">
<path d="M0.957031 2.14898C0.957031 0.962812 1.99015 0 3.26368 0H29.8609C31.1349 0 32.1675 0.962812 32.1675 2.14898V27.8514C32.1675 29.0379 31.1349 30 29.8609 30H3.26368C1.99027 30 0.957031 29.038 0.957031 27.8517V2.14863V2.14898Z" fill="#006699"/>
<path d="M10.7634 24.9995V11.5051H6.0641V24.9995H10.7639H10.7634ZM8.41473 9.66297C10.0531 9.66297 11.0731 8.62675 11.0731 7.33178C11.0425 6.00729 10.0531 5 8.44589 5C6.83755 5 5.78711 6.00729 5.78711 7.33166C5.78711 8.62663 6.80675 9.66285 8.38394 9.66285H8.41436L8.41473 9.66297ZM13.3645 24.9995H18.0635V17.4644C18.0635 17.0617 18.0941 16.6578 18.2183 16.3701C18.5578 15.564 19.331 14.7295 20.6295 14.7295C22.3295 14.7295 23.0099 15.9669 23.0099 17.7812V24.9995H27.7088V17.2622C27.7088 13.1175 25.3907 11.1887 22.2991 11.1887C19.7643 11.1887 18.6511 12.541 18.0325 13.462H18.0638V11.5056H13.3648C13.4261 12.7715 13.3644 25 13.3644 25L13.3645 24.9995Z" fill="white"/>
</svg>
