<svg width="33" height="21" viewBox="0 0 33 21" fill="none" xmlns="http://www.w3.org/2000/svg">
<path d="M22.7227 10.7693L13.4961 5.70142V15.8371L22.7227 10.7693Z" fill="white"/>
<path d="M17.4944 20.9725L11.0043 20.8586C8.90296 20.8189 6.7964 20.8981 4.73627 20.4869C1.60233 19.8725 1.38031 16.8599 1.14799 14.3329C0.827874 10.7803 0.951799 7.16314 1.55589 3.64016C1.89693 1.6634 3.23902 0.483853 5.31453 0.355495C12.3209 -0.110332 19.3738 -0.0551262 26.3647 0.162199C27.103 0.182122 27.8464 0.291012 28.5744 0.414959C32.1681 1.01948 32.2557 4.43342 32.4886 7.30731C32.721 10.2109 32.6229 13.1293 32.1788 16.0131C31.8226 18.4008 31.141 20.4031 28.2646 20.5964C24.6606 20.8491 21.1394 21.0526 17.5253 20.9878C17.5254 20.9725 17.5047 20.9725 17.4944 20.9725ZM13.6788 14.9275C16.3947 13.431 19.0588 11.9595 21.7592 10.4731C19.0382 8.97657 16.3792 7.50502 13.6788 6.01857V14.9275Z" fill="#FF0000"/>
</svg>
